<svg xmlns="http://www.w3.org/2000/svg" viewBox="0.0 0.0 200.0 200.0" height="200px" width="200px"><path fill="none" stroke="black" stroke-width=".3" stroke-opacity="1.0"  filling="0" d="M109.95840454101562 68.96188354492188 L87.61599731445312 87.61599731445312 L65.27359008789062 106.2701187133789 Z"></path>
<path fill="none" stroke="black" stroke-width=".3" stroke-opacity="1.0"  filling="0" d="M162.7906036376953 73.7001724243164 L133.33999633789062 71.41305541992188 L107.84063720703125 83.87214660644531 Z"></path>
<path fill="none" stroke="black" stroke-width=".3" stroke-opacity="1.0"  filling="0" d="M145.76119995117188 37.97723388671875 L119.1126708984375 50.72183609008789 L103.25912475585938 74.26141357421875 Z"></path>
<path fill="none" stroke="black" stroke-width=".3" stroke-opacity="1.0"  filling="0" d="M113.15184020996094 15.554969787597656 L96.44583892822266 39.916378021240234 L94.48605346679688 68.22901916503906 Z"></path>
<path fill="none" stroke="black" stroke-width=".3" stroke-opacity="1.0"  filling="0" d="M162.93890380859375 86.31767272949219 L135.38717651367188 79.18190002441406 L109.29869079589844 87.24225616455078 Z"></path>
<path fill="none" stroke="black" stroke-width=".3" stroke-opacity="1.0"  filling="0" d="M161.6916046142578 73.90361022949219 L133.33999633789062 71.41305541992188 L108.93963623046875 83.66870880126953 Z"></path>
<path fill="none" stroke="black" stroke-width=".3" stroke-opacity="1.0"  filling="0" d="M158.41250610351562 61.86566925048828 L130.03866577148438 64.08863067626953 L107.9957046508789 80.20343017578125 Z"></path>
<path fill="none" stroke="black" stroke-width=".3" stroke-opacity="1.0"  filling="0" d="M152.19837951660156 48.83016586303711 L124.77000427246094 56.426265716552734 L106.20689392089844 76.45098876953125 Z"></path>
<path fill="none" stroke="black" stroke-width=".3" stroke-opacity="1.0"  filling="0" d="M144.91116333007812 38.70292282104492 L119.1126708984375 50.72183609008789 L104.10916900634766 73.53572845458984 Z"></path>
<path fill="none" stroke="black" stroke-width=".3" stroke-opacity="1.0"  filling="0" d="M136.05239868164062 29.91730499267578 L112.59142303466797 46.02936553955078 L101.5590591430664 71.00666809082031 Z"></path>
<path fill="none" stroke="black" stroke-width=".3" stroke-opacity="1.0"  filling="0" d="M124.15306091308594 21.73529815673828 L104.19744873046875 42.02789306640625 L98.13367462158203 68.6513671875 Z"></path>
<path fill="none" stroke="black" stroke-width=".3" stroke-opacity="1.0"  filling="0" d="M112.77852630615234 16.60845184326172 L96.44583892822266 39.916378021240234 L94.85936737060547 67.175537109375 Z"></path>
<path fill="none" stroke="black" stroke-width=".3" stroke-opacity="1.0"  filling="0" d="M100.71381378173828 13.42926025390625 L88.45204162597656 39.11320877075195 L91.3863754272461 66.26036834716797 Z"></path>
<path fill="none" stroke="black" stroke-width=".3" stroke-opacity="1.0"  filling="0" d="M87.61599731445312 87.61599731445312 C87.61599731445312 81.33834075927734 134.4730682373047 81.33834075927734 134.4730682373047 75.06068420410156"></path>
<path fill="none" stroke="black" stroke-width=".3" stroke-opacity="1.0"  filling="0" d="M87.61599731445312 87.61599731445312 C87.61599731445312 70.46512603759766 121.91775512695312 70.46512603759766 121.91775512695312 53.31425094604492"></path>
<path fill="none" stroke="black" stroke-width=".3" stroke-opacity="1.0"  filling="0" d="M87.61599731445312 87.61599731445312 C87.61599731445312 64.18746948242188 100.17131042480469 64.18746948242188 100.17131042480469 40.75893783569336"></path>
<path fill="none" stroke="black" stroke-width=".3" stroke-opacity="1.0"  filling="0" d="M134.4730682373047 75.06068420410156 C134.4730682373047 79.01361083984375 135.90267944335938 79.01361083984375 135.90267944335938 82.96652221679688"></path>
<path fill="none" stroke="black" stroke-width=".3" stroke-opacity="1.0"  filling="0" d="M131.7582244873047 67.49923706054688 C131.7582244873047 71.27996063232422 134.4730682373047 71.27996063232422 134.4730682373047 75.06068420410156"></path>
<path fill="none" stroke="black" stroke-width=".3" stroke-opacity="1.0"  filling="0" d="M121.91775512695312 53.31425094604492 C121.91775512695312 56.38017654418945 127.10873413085938 56.38017654418945 127.10873413085938 59.44609832763672"></path>
<path fill="none" stroke="black" stroke-width=".3" stroke-opacity="1.0"  filling="0" d="M115.78589630126953 48.12325668334961 C115.78589630126953 50.718753814697266 121.91775512695312 50.718753814697266 121.91775512695312 53.31425094604492"></path>
<path fill="none" stroke="black" stroke-width=".3" stroke-opacity="1.0"  filling="0" d="M100.17131042480469 40.75893783569336 C100.17131042480469 42.116363525390625 107.7327651977539 42.116363525390625 107.7327651977539 43.47378158569336"></path>
<path fill="none" stroke="black" stroke-width=".3" stroke-opacity="1.0"  filling="0" d="M92.2654800415039 39.32933807373047 C92.2654800415039 40.04413604736328 100.17131042480469 40.04413604736328 100.17131042480469 40.75893783569336"></path></svg>