<svg xmlns="http://www.w3.org/2000/svg" viewBox="0.0 0.0 200.0 200.0" height="200px" width="200px"><path fill="none" stroke="black" stroke-width=".3" stroke-opacity="1.0"  filling="0" d="M106.2701187133789 65.27359008789062 L68.96188354492188 109.95840454101562 L87.61599731445312 87.61599731445312 Z"></path>
<path fill="none" stroke="black" stroke-width=".3" stroke-opacity="1.0"  filling="0" d="M159.67703247070312 62.08015823364258 L107.00298309326172 80.74595642089844 L135.31561279296875 78.78616333007812 Z"></path>
<path fill="none" stroke="black" stroke-width=".3" stroke-opacity="1.0"  filling="0" d="M137.2547607421875 29.470794677734375 L100.97059631347656 71.9728775024414 L124.51016998291016 56.119327545166016 Z"></path>
<path fill="none" stroke="black" stroke-width=".3" stroke-opacity="1.0"  filling="0" d="M101.53182220458984 12.441398620605469 L91.35984802246094 67.391357421875 L103.8189468383789 41.89199447631836 Z"></path>
<path fill="none" stroke="black" stroke-width=".3" stroke-opacity="1.0"  filling="0" d="M161.802734375 74.5181884765625 L108.97162628173828 83.84561920166016 L136.11878967285156 86.77996826171875 Z"></path>
<path fill="none" stroke="black" stroke-width=".3" stroke-opacity="1.0"  filling="0" d="M158.62355041503906 62.45347213745117 L108.05645751953125 80.37263488769531 L135.31561279296875 78.78616333007812 Z"></path>
<path fill="none" stroke="black" stroke-width=".3" stroke-opacity="1.0"  filling="0" d="M153.49671936035156 51.07893753051758 L106.58063507080078 77.09832763671875 L133.2041015625 71.0345458984375 Z"></path>
<path fill="none" stroke="black" stroke-width=".3" stroke-opacity="1.0"  filling="0" d="M145.314697265625 39.17959213256836 L104.22532653808594 73.67294311523438 L129.20263671875 62.64057540893555 Z"></path>
<path fill="none" stroke="black" stroke-width=".3" stroke-opacity="1.0"  filling="0" d="M136.52906799316406 30.320838928222656 L101.69627380371094 71.12283325195312 L124.51016998291016 56.119327545166016 Z"></path>
<path fill="none" stroke="black" stroke-width=".3" stroke-opacity="1.0"  filling="0" d="M126.4018325805664 23.033615112304688 L98.78101348876953 69.02511596679688 L118.80573272705078 50.46199035644531 Z"></path>
<path fill="none" stroke="black" stroke-width=".3" stroke-opacity="1.0"  filling="0" d="M113.3663330078125 16.819496154785156 L95.02857208251953 67.23628997802734 L111.14337158203125 45.193328857421875 Z"></path>
<path fill="none" stroke="black" stroke-width=".3" stroke-opacity="1.0"  filling="0" d="M101.32838439941406 13.540397644042969 L91.56329345703125 66.2923583984375 L103.8189468383789 41.89199447631836 Z"></path>
<path fill="none" stroke="black" stroke-width=".3" stroke-opacity="1.0"  filling="0" d="M88.9143295288086 12.293106079101562 L87.98973846435547 65.93331146240234 L96.05009460449219 39.84481430053711 Z"></path>
<path fill="none" stroke="black" stroke-width=".3" stroke-opacity="1.0"  filling="0" d="M87.61599731445312 87.61599731445312 C87.61599731445312 81.33834075927734 134.4730682373047 81.33834075927734 134.4730682373047 75.06068420410156"></path>
<path fill="none" stroke="black" stroke-width=".3" stroke-opacity="1.0"  filling="0" d="M87.61599731445312 87.61599731445312 C87.61599731445312 70.46512603759766 121.91775512695312 70.46512603759766 121.91775512695312 53.31425094604492"></path>
<path fill="none" stroke="black" stroke-width=".3" stroke-opacity="1.0"  filling="0" d="M87.61599731445312 87.61599731445312 C87.61599731445312 64.18746948242188 100.17131042480469 64.18746948242188 100.17131042480469 40.75893783569336"></path>
<path fill="none" stroke="black" stroke-width=".3" stroke-opacity="1.0"  filling="0" d="M134.4730682373047 75.06068420410156 C134.4730682373047 79.01361083984375 135.90267944335938 79.01361083984375 135.90267944335938 82.96652221679688"></path>
<path fill="none" stroke="black" stroke-width=".3" stroke-opacity="1.0"  filling="0" d="M131.7582244873047 67.49923706054688 C131.7582244873047 71.27996063232422 134.4730682373047 71.27996063232422 134.4730682373047 75.06068420410156"></path>
<path fill="none" stroke="black" stroke-width=".3" stroke-opacity="1.0"  filling="0" d="M121.91775512695312 53.31425094604492 C121.91775512695312 56.38017654418945 127.10873413085938 56.38017654418945 127.10873413085938 59.44609832763672"></path>
<path fill="none" stroke="black" stroke-width=".3" stroke-opacity="1.0"  filling="0" d="M115.78589630126953 48.12325668334961 C115.78589630126953 50.718753814697266 121.91775512695312 50.718753814697266 121.91775512695312 53.31425094604492"></path>
<path fill="none" stroke="black" stroke-width=".3" stroke-opacity="1.0"  filling="0" d="M100.17131042480469 40.75893783569336 C100.17131042480469 42.116363525390625 107.7327651977539 42.116363525390625 107.7327651977539 43.47378158569336"></path>
<path fill="none" stroke="black" stroke-width=".3" stroke-opacity="1.0"  filling="0" d="M92.2654800415039 39.32933807373047 C92.2654800415039 40.04413604736328 100.17131042480469 40.04413604736328 100.17131042480469 40.75893783569336"></path></svg>