<svg xmlns="http://www.w3.org/2000/svg" viewBox="0.0 0.0 200.0 200.0" height="200px" width="200px"><path fill="none" stroke="black" stroke-width=".3" stroke-opacity="1.0"  filling="0" d="M87.61599731445312 95.39915466308594 C84.83879089355469 95.39915466308594 82.2641830444336 93.91270446777344 80.87557983398438 91.50757598876953 C79.48697662353516 89.10244750976562 79.48697662353516 86.12954711914062 80.87557983398438 83.72441864013672 C82.2641830444336 81.31929016113281 84.83879089355469 79.83283996582031 87.61599731445312 79.83283996582031 C90.39320373535156 79.83283996582031 92.96781158447266 81.31929016113281 94.35641479492188 83.72441864013672 C95.7450180053711 86.12954711914062 95.7450180053711 89.10244750976562 94.35641479492188 91.50757598876953 C92.96781158447266 93.91270446777344 90.39320373535156 95.39915466308594 87.61599731445312 95.39915466308594 Z"></path>
<path fill="none" stroke="black" stroke-width=".3" stroke-opacity="1.0"  filling="0" d="M134.4730682373047 82.84384155273438 C131.69586181640625 82.84384155273438 129.12124633789062 81.35739135742188 127.73265075683594 78.95226287841797 C126.34404754638672 76.54713439941406 126.34404754638672 73.57423400878906 127.73265075683594 71.16910552978516 C129.12124633789062 68.76397705078125 131.69586181640625 67.27752685546875 134.4730682373047 67.27752685546875 C137.25027465820312 67.27752685546875 139.82489013671875 68.76397705078125 141.21348571777344 71.16910552978516 C142.60208129882812 73.57423400878906 142.60208129882812 76.54713439941406 141.21348571777344 78.95226287841797 C139.82489013671875 81.35739135742188 137.25027465820312 82.84384155273438 134.4730682373047 82.84384155273438 Z"></path>
<path fill="none" stroke="black" stroke-width=".3" stroke-opacity="1.0"  filling="0" d="M121.91775512695312 61.09740447998047 C119.85366821289062 61.098426818847656 117.87165832519531 60.278316497802734 116.41175842285156 58.81915283203125 C114.95185852050781 57.359989166259766 114.1307601928711 55.378387451171875 114.13074493408203 53.314300537109375 C114.13072967529297 51.250213623046875 114.9518051147461 49.26860046386719 116.41168212890625 47.809417724609375 C117.8715591430664 46.35023498535156 119.85356140136719 45.530094146728516 121.91764831542969 45.531089782714844 C123.98184204101562 45.530067443847656 125.96385192871094 46.35017776489258 127.42375183105469 47.80934143066406 C128.88365173339844 49.26850509643555 129.7047576904297 51.25010681152344 129.70477294921875 53.31419372558594 C129.7047882080078 55.37828063964844 128.88369750976562 57.359893798828125 127.423828125 58.81907653808594 C125.96395111083984 60.27825927734375 123.98194885253906 61.0984001159668 121.91786193847656 61.09740447998047 Z"></path>
<path fill="none" stroke="black" stroke-width=".3" stroke-opacity="1.0"  filling="0" d="M100.17131042480469 48.54209899902344 C97.39410400390625 48.54209899902344 94.81949615478516 47.05564498901367 93.43089294433594 44.650516510009766 C92.04228973388672 42.24538803100586 92.04228973388672 39.27248764038086 93.43089294433594 36.86735916137695 C94.81949615478516 34.46223068237305 97.39410400390625 32.97577667236328 100.17131042480469 32.97577667236328 C102.94851684570312 32.97577667236328 105.52312469482422 34.46222686767578 106.91172790527344 36.86735534667969 C108.30033111572266 39.272483825683594 108.30033111572266 42.24538803100586 106.91172790527344 44.650516510009766 C105.52312469482422 47.05564498901367 102.94851684570312 48.54209899902344 100.17131042480469 48.54209899902344 Z"></path>
<path fill="none" stroke="black" stroke-width=".3" stroke-opacity="1.0"  filling="0" d="M135.90267944335938 90.74967956542969 C133.83810424804688 90.75144958496094 131.8553924560547 89.93167877197266 130.39488220214844 88.47244262695312 C128.9343719482422 87.0132064819336 128.11288452148438 85.03118133544922 128.11285400390625 82.96661376953125 C128.11282348632812 80.90204620361328 128.9342803955078 78.91999816894531 130.39474487304688 77.46073150634766 C131.85520935058594 76.00146484375 133.83792114257812 75.181640625 135.90249633789062 75.18336486816406 C137.96725463867188 75.18159484863281 139.94996643066406 76.00137329101562 141.4104766845703 77.46060943603516 C142.87098693847656 78.91984558105469 143.69247436523438 80.90186309814453 143.6925048828125 82.9664306640625 C143.69253540039062 85.03099822998047 142.87107849121094 87.01304626464844 141.41061401367188 88.4723129272461 C139.9501495361328 89.93157958984375 137.96743774414062 90.75140380859375 135.90286254882812 90.74967956542969 Z"></path>
<path fill="none" stroke="black" stroke-width=".3" stroke-opacity="1.0"  filling="0" d="M134.4730682373047 82.84384155273438 C131.69586181640625 82.84384155273438 129.12124633789062 81.35739135742188 127.73265075683594 78.95226287841797 C126.34404754638672 76.54713439941406 126.34404754638672 73.57423400878906 127.73265075683594 71.16910552978516 C129.12124633789062 68.76397705078125 131.69586181640625 67.27752685546875 134.4730682373047 67.27752685546875 C137.25027465820312 67.27752685546875 139.82489013671875 68.76397705078125 141.21348571777344 71.16910552978516 C142.60208129882812 73.57423400878906 142.60208129882812 76.54713439941406 141.21348571777344 78.95226287841797 C139.82489013671875 81.35739135742188 137.25027465820312 82.84384155273438 134.4730682373047 82.84384155273438 Z"></path>
<path fill="none" stroke="black" stroke-width=".3" stroke-opacity="1.0"  filling="0" d="M131.7582244873047 75.28239440917969 C128.98101806640625 75.28239440917969 126.40641021728516 73.79594421386719 125.01780700683594 71.39081573486328 C123.62920379638672 68.98568725585938 123.62920379638672 66.01278686523438 125.01780700683594 63.60765838623047 C126.40641021728516 61.20252990722656 128.98101806640625 59.7160758972168 131.7582244873047 59.7160758972168 C134.53543090820312 59.7160758972168 137.11004638671875 61.2025260925293 138.49864196777344 63.6076545715332 C139.88723754882812 66.01278686523438 139.88723754882812 68.98568725585938 138.49864196777344 71.39081573486328 C137.11004638671875 73.79594421386719 134.53543090820312 75.28239440917969 131.7582244873047 75.28239440917969 Z"></path>
<path fill="none" stroke="black" stroke-width=".3" stroke-opacity="1.0"  filling="0" d="M127.10873413085938 67.22926330566406 C124.33152770996094 67.22926330566406 121.75691986083984 65.74281311035156 120.36831665039062 63.33768081665039 C118.9797134399414 60.932552337646484 118.9797134399414 57.959651947021484 120.36831665039062 55.55452346801758 C121.75691986083984 53.14939498901367 124.33152770996094 51.662940979003906 127.10873413085938 51.662940979003906 C129.8859405517578 51.662940979003906 132.46055603027344 53.149391174316406 133.84915161132812 55.55451965332031 C135.2377471923828 57.95964813232422 135.2377471923828 60.932552337646484 133.84915161132812 63.33768081665039 C132.46055603027344 65.74281311035156 129.8859405517578 67.22926330566406 127.10873413085938 67.22926330566406 Z"></path>
<path fill="none" stroke="black" stroke-width=".3" stroke-opacity="1.0"  filling="0" d="M121.91775512695312 61.09740447998047 C119.85366821289062 61.098426818847656 117.87165832519531 60.278316497802734 116.41175842285156 58.81915283203125 C114.95185852050781 57.359989166259766 114.1307601928711 55.378387451171875 114.13074493408203 53.314300537109375 C114.13072967529297 51.250213623046875 114.9518051147461 49.26860046386719 116.41168212890625 47.809417724609375 C117.8715591430664 46.35023498535156 119.85356140136719 45.530094146728516 121.91764831542969 45.531089782714844 C123.98184204101562 45.530067443847656 125.96385192871094 46.35017776489258 127.42375183105469 47.80934143066406 C128.88365173339844 49.26850509643555 129.7047576904297 51.25010681152344 129.70477294921875 53.31419372558594 C129.7047882080078 55.37828063964844 128.88369750976562 57.359893798828125 127.423828125 58.81907653808594 C125.96395111083984 60.27825927734375 123.98194885253906 61.0984001159668 121.91786193847656 61.09740447998047 Z"></path>
<path fill="none" stroke="black" stroke-width=".3" stroke-opacity="1.0"  filling="0" d="M115.78589630126953 55.90641784667969 C113.72180938720703 55.907440185546875 111.73979949951172 55.08732986450195 110.27989959716797 53.62816619873047 C108.81999969482422 52.169002532958984 107.9989013671875 50.187400817871094 107.99888610839844 48.123313903808594 C107.99887084960938 46.059226989746094 108.8199462890625 44.077613830566406 110.27982330322266 42.618431091308594 C111.73970031738281 41.15924835205078 113.7217025756836 40.339107513427734 115.7857894897461 40.34010314941406 C117.84998321533203 40.339080810546875 119.83199310302734 41.1591911315918 121.2918930053711 42.61835479736328 C122.75179290771484 44.077518463134766 123.57289123535156 46.059120178222656 123.57290649414062 48.123207092285156 C123.57292175292969 50.187294006347656 122.75184631347656 52.168907165527344 121.2919692993164 53.628089904785156 C119.83209228515625 55.08727264404297 117.85009002685547 55.907413482666016 115.78600311279297 55.90641784667969 Z"></path>
<path fill="none" stroke="black" stroke-width=".3" stroke-opacity="1.0"  filling="0" d="M107.7327651977539 51.256935119628906 C105.6686782836914 51.257957458496094 103.6866683959961 50.43784713745117 102.22676849365234 48.97868347167969 C100.7668685913086 47.5195198059082 99.94577026367188 45.53791809082031 99.94575500488281 43.47383117675781 C99.94573974609375 41.40974426269531 100.76681518554688 39.428131103515625 102.22669219970703 37.96894836425781 C103.68656921386719 36.509765625 105.66857147216797 35.68962478637695 107.73265838623047 35.69062042236328 C109.7968521118164 35.689598083496094 111.77886199951172 36.509708404541016 113.23876190185547 37.9688720703125 C114.69866180419922 39.428035736083984 115.51976013183594 41.409637451171875 115.519775390625 43.473724365234375 C115.51979064941406 45.537811279296875 114.69871520996094 47.51942443847656 113.23883819580078 48.978607177734375 C111.77896118164062 50.43778991699219 109.79695892333984 51.257930755615234 107.73287200927734 51.256935119628906 Z"></path>
<path fill="none" stroke="black" stroke-width=".3" stroke-opacity="1.0"  filling="0" d="M100.17131042480469 48.54209899902344 C97.39410400390625 48.54209899902344 94.81949615478516 47.05564498901367 93.43089294433594 44.650516510009766 C92.04228973388672 42.24538803100586 92.04228973388672 39.27248764038086 93.43089294433594 36.86735916137695 C94.81949615478516 34.46223068237305 97.39410400390625 32.97577667236328 100.17131042480469 32.97577667236328 C102.94851684570312 32.97577667236328 105.52312469482422 34.46222686767578 106.91172790527344 36.86735534667969 C108.30033111572266 39.272483825683594 108.30033111572266 42.24538803100586 106.91172790527344 44.650516510009766 C105.52312469482422 47.05564498901367 102.94851684570312 48.54209899902344 100.17131042480469 48.54209899902344 Z"></path>
<path fill="none" stroke="black" stroke-width=".3" stroke-opacity="1.0"  filling="0" d="M92.2654800415039 47.112491607666016 C89.48827362060547 47.112491607666016 86.91366577148438 45.62603759765625 85.52506256103516 43.220909118652344 C84.13645935058594 40.81578063964844 84.13645935058594 37.84288024902344 85.52506256103516 35.43775177001953 C86.91366577148438 33.032623291015625 89.48827362060547 31.54616928100586 92.2654800415039 31.54616928100586 C95.04268646240234 31.54616928100586 97.61729431152344 33.03261947631836 99.00589752197266 35.437747955322266 C100.39450073242188 37.84287643432617 100.39450073242188 40.81578063964844 99.00589752197266 43.220909118652344 C97.61729431152344 45.62603759765625 95.04268646240234 47.112491607666016 92.2654800415039 47.112491607666016 Z"></path>
<path fill="none" stroke="black" stroke-width=".3" stroke-opacity="1.0"  filling="0" d="M134.46707153320312 75.03834533691406 C132.79666137695312 68.82798767089844 128.72300720214844 63.53004455566406 123.15018463134766 60.32029724121094 C117.57736206054688 57.11054992675781 110.9505615234375 56.24542236328125 104.74049377441406 57.91690444946289 C98.53042602539062 59.58838653564453 93.23318481445312 63.66295623779297 90.02439880371094 69.23633575439453 C86.81561279296875 74.8097152709961 85.95162963867188 81.43666076660156 87.62418365478516 87.64643859863281"></path>
<path fill="none" stroke="black" stroke-width=".3" stroke-opacity="1.0"  filling="0" d="M121.96847534179688 53.36512756347656 C117.4359359741211 48.803810119628906 111.27050018310547 46.22711181640625 104.84017181396484 46.206764221191406 C98.40984344482422 46.18641662597656 92.22821807861328 48.724037170410156 87.66690063476562 53.25657653808594 C83.10558319091797 57.78911590576172 80.52888488769531 63.954559326171875 80.50853729248047 70.3848876953125 C80.48818969726562 76.81521606445312 83.02581024169922 82.99683380126953 87.558349609375 87.55815124511719"></path>
<path fill="none" stroke="black" stroke-width=".3" stroke-opacity="1.0"  filling="0" d="M100.27684783935547 40.78746795654297 C94.07316589355469 39.095191955566406 87.44424438476562 39.937530517578125 81.86095428466797 43.12757873535156 C76.27766418457031 46.317626953125 72.1859359741211 51.60060119628906 70.49365997314453 57.80428695678711 C68.80138397216797 64.00797271728516 69.64372253417969 70.63688659667969 72.83377075195312 76.22017669677734 C76.02381896972656 81.803466796875 81.30679321289062 85.89519500732422 87.51048278808594 87.58747100830078"></path>
<path fill="none" stroke="black" stroke-width=".3" stroke-opacity="1.0"  filling="0" d="M133.40435791015625 75.41422271728516 C134.3587188720703 74.94132995605469 135.46302795410156 74.86689758300781 136.4722137451172 75.20743560791016 C137.4813995361328 75.5479736328125 138.31483459472656 76.27628326416016 138.7875518798828 77.23072052001953 C139.26026916503906 78.1851577758789 139.33453369140625 79.28948211669922 138.9938201904297 80.2986068725586 C138.65310668945312 81.30773162841797 137.92465209960938 82.14105224609375 136.9701385498047 82.61360931396484"></path>
<path fill="none" stroke="black" stroke-width=".3" stroke-opacity="1.0"  filling="0" d="M131.33335876464844 67.67996215820312 C130.3789520263672 68.15247344970703 129.65054321289062 68.98565673828125 129.30978393554688 69.99464416503906 C128.96902465820312 71.00363159179688 129.0431365966797 72.10782623291016 129.51564025878906 73.06224060058594 C129.98814392089844 74.01665496826172 130.82131958007812 74.74504852294922 131.83030700683594 75.08580780029297 C132.83929443359375 75.42656707763672 133.94351196289062 75.35247039794922 134.89791870117188 74.87995910644531"></path>
<path fill="none" stroke="black" stroke-width=".3" stroke-opacity="1.0"  filling="0" d="M121.5389404296875 53.68017578125 C122.25475311279297 52.89164352416992 123.25555419921875 52.41925811767578 124.31928253173828 52.367835998535156 C125.38301086425781 52.31641387939453 126.4247055053711 52.690059661865234 127.21324157714844 53.40586853027344 C128.00177001953125 54.12167739868164 128.4741668701172 55.12247848510742 128.5255889892578 56.18621063232422 C128.57701110839844 57.249942779541016 128.20335388183594 58.29164505004883 127.487548828125 59.080177307128906"></path>
<path fill="none" stroke="black" stroke-width=".3" stroke-opacity="1.0"  filling="0" d="M115.87751770019531 48.01875305175781 C115.16170501708984 48.80728530883789 114.78805541992188 49.8489875793457 114.8394775390625 50.9127197265625 C114.89089965820312 51.9764518737793 115.36328887939453 52.97725296020508 116.15182495117188 53.69306182861328 C116.94036102294922 54.408870697021484 117.9820556640625 54.78251647949219 119.04578399658203 54.73109436035156 C120.10951232910156 54.67967224121094 121.11031341552734 54.2072868347168 121.82612609863281 53.41875457763672"></path>
<path fill="none" stroke="black" stroke-width=".3" stroke-opacity="1.0"  filling="0" d="M100.36087036132812 40.31636047363281 C100.83807373046875 39.364288330078125 101.67484283447266 38.640010833740234 102.68549346923828 38.304229736328125 C103.6961441040039 37.968448638916016 104.79996490478516 38.04798126220703 105.75203704833984 38.52518844604492 C106.70410919189453 39.00239562988281 107.42839050292969 39.83915710449219 107.76417541503906 40.84981155395508 C108.09996032714844 41.86046600341797 108.02041625976562 42.96428680419922 107.543212890625 43.916358947753906"></path>
<path fill="none" stroke="black" stroke-width=".3" stroke-opacity="1.0"  filling="0" d="M100.13330841064453 40.94413375854492 C99.89470672607422 41.982032775878906 99.25289154052734 42.88359832763672 98.35026550292969 43.448787689208984 C97.44763946533203 44.01397705078125 96.3563003540039 44.19764709472656 95.31839752197266 43.95904541015625 C94.2804946899414 43.72044372558594 93.3789291381836 43.07862091064453 92.8137435913086 42.17599868774414 C92.2485580444336 41.27337646484375 92.06488800048828 40.182037353515625 92.3034896850586 39.14413833618164"></path></svg>