<svg xmlns="http://www.w3.org/2000/svg" viewBox="0.0 0.0 200.0 200.0" height="200px" width="200px"><path fill="none" stroke="black" stroke-width=".3" stroke-opacity="1.0"  filling="0" d="M87.61599731445312 93.01599884033203 C85.68915557861328 93.01599884033203 83.90287780761719 91.98468780517578 82.93946075439453 90.31599426269531 C81.97604370117188 88.64730072021484 81.97604370117188 86.5846939086914 82.93946075439453 84.91600036621094 C83.90287780761719 83.24730682373047 85.68915557861328 82.21599578857422 87.61599731445312 82.21599578857422 C89.54283905029297 82.21599578857422 91.32911682128906 83.24730682373047 92.29253387451172 84.91600036621094 C93.25595092773438 86.5846939086914 93.25595092773438 88.64730072021484 92.29253387451172 90.31599426269531 C91.32911682128906 91.98468780517578 89.54283905029297 93.01599884033203 87.61599731445312 93.01599884033203 Z"></path>
<path fill="none" stroke="black" stroke-width=".3" stroke-opacity="1.0"  filling="0" d="M134.4730682373047 80.46067810058594 C133.04066467285156 80.46188354492188 131.6650390625 79.89309692382812 130.65174865722656 78.88065338134766 C129.63845825195312 77.86820983886719 129.06854248046875 76.4930648803711 129.06854248046875 75.06065368652344 C129.06854248046875 73.62824249267578 129.63848876953125 72.25311279296875 130.65179443359375 71.24067687988281 C131.66510009765625 70.22824096679688 133.0407257080078 69.65946960449219 134.47312927246094 69.66069030761719 C135.9054718017578 69.65948486328125 137.28109741210938 70.228271484375 138.2943878173828 71.24071502685547 C139.30767822265625 72.25315856933594 139.87759399414062 73.62830352783203 139.87759399414062 75.06071472167969 C139.87759399414062 76.49312591552734 139.30764770507812 77.86825561523438 138.29434204101562 78.88069152832031 C137.28103637695312 79.89312744140625 135.90541076660156 80.46189880371094 134.47300720214844 80.46067810058594 Z"></path>
<path fill="none" stroke="black" stroke-width=".3" stroke-opacity="1.0"  filling="0" d="M121.91775512695312 58.714256286621094 C119.99091339111328 58.714256286621094 118.20463562011719 57.682945251464844 117.24121856689453 56.01425552368164 C116.27780151367188 54.34556579589844 116.27780151367188 52.28294372558594 117.24121856689453 50.614253997802734 C118.20463562011719 48.94556427001953 119.99091339111328 47.91425323486328 121.91775512695312 47.91425323486328 C123.84459686279297 47.91425323486328 125.63087463378906 48.94556427001953 126.59429168701172 50.614253997802734 C127.55770874023438 52.28294372558594 127.55770874023438 54.34556579589844 126.59429168701172 56.01425552368164 C125.63087463378906 57.682945251464844 123.84459686279297 58.714256286621094 121.91775512695312 58.714256286621094 Z"></path>
<path fill="none" stroke="black" stroke-width=".3" stroke-opacity="1.0"  filling="0" d="M100.17131042480469 46.15894317626953 C98.24446868896484 46.15894317626953 96.45819091796875 45.12763214111328 95.4947738647461 43.45894241333008 C94.53135681152344 41.790252685546875 94.53135681152344 39.727630615234375 95.4947738647461 38.05894088745117 C96.45819091796875 36.39025115966797 98.24446868896484 35.35894012451172 100.17131042480469 35.35894012451172 C102.09815216064453 35.35894012451172 103.88442993164062 36.39025115966797 104.84784698486328 38.05894088745117 C105.81126403808594 39.727630615234375 105.81126403808594 41.790252685546875 104.84784698486328 43.45894241333008 C103.88442993164062 45.12763214111328 102.09815216064453 46.15894317626953 100.17131042480469 46.15894317626953 Z"></path>
<path fill="none" stroke="black" stroke-width=".3" stroke-opacity="1.0"  filling="0" d="M135.90267944335938 88.36652374267578 C133.97584533691406 88.36652374267578 132.18955993652344 87.33521270751953 131.22613525390625 85.66651916503906 C130.26271057128906 83.9978256225586 130.26271057128906 81.93521881103516 131.22613525390625 80.26652526855469 C132.18955993652344 78.59783172607422 133.97584533691406 77.56652069091797 135.90267944335938 77.56652069091797 C137.8295135498047 77.56652069091797 139.6157989501953 78.59783172607422 140.5792236328125 80.26652526855469 C141.5426483154297 81.93521881103516 141.5426483154297 83.9978256225586 140.5792236328125 85.66651916503906 C139.6157989501953 87.33521270751953 137.8295135498047 88.36652374267578 135.90267944335938 88.36652374267578 Z"></path>
<path fill="none" stroke="black" stroke-width=".3" stroke-opacity="1.0"  filling="0" d="M134.4730682373047 80.46067810058594 C133.04066467285156 80.46188354492188 131.6650390625 79.89309692382812 130.65174865722656 78.88065338134766 C129.63845825195312 77.86820983886719 129.06854248046875 76.4930648803711 129.06854248046875 75.06065368652344 C129.06854248046875 73.62824249267578 129.63848876953125 72.25311279296875 130.65179443359375 71.24067687988281 C131.66510009765625 70.22824096679688 133.0407257080078 69.65946960449219 134.47312927246094 69.66069030761719 C135.9054718017578 69.65948486328125 137.28109741210938 70.228271484375 138.2943878173828 71.24071502685547 C139.30767822265625 72.25315856933594 139.87759399414062 73.62830352783203 139.87759399414062 75.06071472167969 C139.87759399414062 76.49312591552734 139.30764770507812 77.86825561523438 138.29434204101562 78.88069152832031 C137.28103637695312 79.89312744140625 135.90541076660156 80.46189880371094 134.47300720214844 80.46067810058594 Z"></path>
<path fill="none" stroke="black" stroke-width=".3" stroke-opacity="1.0"  filling="0" d="M131.7582244873047 72.89923095703125 C129.83139038085938 72.89923095703125 128.04510498046875 71.867919921875 127.0816879272461 70.19922637939453 C126.11827087402344 68.53053283691406 126.11827087402344 66.46792602539062 127.0816879272461 64.79923248291016 C128.04510498046875 63.13053894042969 129.83139038085938 62.09922790527344 131.7582244873047 62.09922790527344 C133.68505859375 62.09922790527344 135.47132873535156 63.13054275512695 136.43475341796875 64.79923248291016 C137.39817810058594 66.46792602539062 137.398193359375 68.53053283691406 136.4347686767578 70.19922637939453 C135.47134399414062 71.867919921875 133.68505859375 72.89923095703125 131.7582244873047 72.89923095703125 Z"></path>
<path fill="none" stroke="black" stroke-width=".3" stroke-opacity="1.0"  filling="0" d="M127.10873413085938 64.84609985351562 C125.18189239501953 64.84609985351562 123.39561462402344 63.814788818359375 122.43219757080078 62.14609909057617 C121.46878051757812 60.47740936279297 121.46878051757812 58.41478729248047 122.43219757080078 56.746097564697266 C123.39561462402344 55.07740783691406 125.18189239501953 54.04609680175781 127.10873413085938 54.04609680175781 C129.0355682373047 54.04609680175781 130.8218536376953 55.07740783691406 131.7852783203125 56.746097564697266 C132.7487030029297 58.41478729248047 132.7487030029297 60.47740936279297 131.7852783203125 62.14609909057617 C130.8218536376953 63.814788818359375 129.0355682373047 64.84609985351562 127.10873413085938 64.84609985351562 Z"></path>
<path fill="none" stroke="black" stroke-width=".3" stroke-opacity="1.0"  filling="0" d="M121.91775512695312 58.714256286621094 C119.99091339111328 58.714256286621094 118.20463562011719 57.682945251464844 117.24121856689453 56.01425552368164 C116.27780151367188 54.34556579589844 116.27780151367188 52.28294372558594 117.24121856689453 50.614253997802734 C118.20463562011719 48.94556427001953 119.99091339111328 47.91425323486328 121.91775512695312 47.91425323486328 C123.84459686279297 47.91425323486328 125.63087463378906 48.94556427001953 126.59429168701172 50.614253997802734 C127.55770874023438 52.28294372558594 127.55770874023438 54.34556579589844 126.59429168701172 56.01425552368164 C125.63087463378906 57.682945251464844 123.84459686279297 58.714256286621094 121.91775512695312 58.714256286621094 Z"></path>
<path fill="none" stroke="black" stroke-width=".3" stroke-opacity="1.0"  filling="0" d="M115.78589630126953 53.52325439453125 C113.85905456542969 53.52325439453125 112.0727767944336 52.49195098876953 111.10935974121094 50.82325744628906 C110.14594268798828 49.154563903808594 110.14594268798828 47.091949462890625 111.10935974121094 45.423255920410156 C112.0727767944336 43.75456237792969 113.85905456542969 42.72325897216797 115.78589630126953 42.72325897216797 C117.71273803710938 42.72325897216797 119.49901580810547 43.75456619262695 120.46243286132812 45.423255920410156 C121.42584991455078 47.09194564819336 121.42584991455078 49.154563903808594 120.46243286132812 50.82325744628906 C119.49901580810547 52.49195098876953 117.71273803710938 53.52325439453125 115.78589630126953 53.52325439453125 Z"></path>
<path fill="none" stroke="black" stroke-width=".3" stroke-opacity="1.0"  filling="0" d="M107.7327651977539 48.873779296875 C105.80592346191406 48.873779296875 104.01964569091797 47.84246826171875 103.05622863769531 46.17377853393555 C102.09281158447266 44.505088806152344 102.09281158447266 42.442466735839844 103.05622863769531 40.77377700805664 C104.01964569091797 39.10508728027344 105.80592346191406 38.07377624511719 107.7327651977539 38.07377624511719 C109.65960693359375 38.07377624511719 111.44588470458984 39.10508728027344 112.4093017578125 40.77377700805664 C113.37271881103516 42.442466735839844 113.37271881103516 44.505088806152344 112.4093017578125 46.17377853393555 C111.44588470458984 47.84246826171875 109.65960693359375 48.873779296875 107.7327651977539 48.873779296875 Z"></path>
<path fill="none" stroke="black" stroke-width=".3" stroke-opacity="1.0"  filling="0" d="M100.17131042480469 46.15894317626953 C98.24446868896484 46.15894317626953 96.45819091796875 45.12763214111328 95.4947738647461 43.45894241333008 C94.53135681152344 41.790252685546875 94.53135681152344 39.727630615234375 95.4947738647461 38.05894088745117 C96.45819091796875 36.39025115966797 98.24446868896484 35.35894012451172 100.17131042480469 35.35894012451172 C102.09815216064453 35.35894012451172 103.88442993164062 36.39025115966797 104.84784698486328 38.05894088745117 C105.81126403808594 39.727630615234375 105.81126403808594 41.790252685546875 104.84784698486328 43.45894241333008 C103.88442993164062 45.12763214111328 102.09815216064453 46.15894317626953 100.17131042480469 46.15894317626953 Z"></path>
<path fill="none" stroke="black" stroke-width=".3" stroke-opacity="1.0"  filling="0" d="M92.2654800415039 44.729331970214844 C90.33863830566406 44.729331970214844 88.55236053466797 43.698020935058594 87.58894348144531 42.02933120727539 C86.62552642822266 40.36064147949219 86.62552642822266 38.29801940917969 87.58894348144531 36.629329681396484 C88.55236053466797 34.96063995361328 90.33863830566406 33.92932891845703 92.2654800415039 33.92932891845703 C94.19232177734375 33.92932891845703 95.97859954833984 34.96063995361328 96.9420166015625 36.629329681396484 C97.90543365478516 38.29801940917969 97.90543365478516 40.36064147949219 96.9420166015625 42.02933120727539 C95.97859954833984 43.698020935058594 94.19232177734375 44.729331970214844 92.2654800415039 44.729331970214844 Z"></path>
<path fill="none" stroke="black" stroke-width=".3" stroke-opacity="1.0"  filling="0" d="M87.61599731445312 87.61599731445312 C87.61599731445312 81.33834075927734 134.4730682373047 81.33834075927734 134.4730682373047 75.06068420410156"></path>
<path fill="none" stroke="black" stroke-width=".3" stroke-opacity="1.0"  filling="0" d="M87.61599731445312 87.61599731445312 C87.61599731445312 70.46512603759766 121.91775512695312 70.46512603759766 121.91775512695312 53.31425094604492"></path>
<path fill="none" stroke="black" stroke-width=".3" stroke-opacity="1.0"  filling="0" d="M87.61599731445312 87.61599731445312 C87.61599731445312 64.18746948242188 100.17131042480469 64.18746948242188 100.17131042480469 40.75893783569336"></path>
<path fill="none" stroke="black" stroke-width=".3" stroke-opacity="1.0"  filling="0" d="M134.4730682373047 75.06068420410156 C134.4730682373047 79.01361083984375 135.90267944335938 79.01361083984375 135.90267944335938 82.96652221679688"></path>
<path fill="none" stroke="black" stroke-width=".3" stroke-opacity="1.0"  filling="0" d="M131.7582244873047 67.49923706054688 C131.7582244873047 71.27996063232422 134.4730682373047 71.27996063232422 134.4730682373047 75.06068420410156"></path>
<path fill="none" stroke="black" stroke-width=".3" stroke-opacity="1.0"  filling="0" d="M121.91775512695312 53.31425094604492 C121.91775512695312 56.38017654418945 127.10873413085938 56.38017654418945 127.10873413085938 59.44609832763672"></path>
<path fill="none" stroke="black" stroke-width=".3" stroke-opacity="1.0"  filling="0" d="M115.78589630126953 48.12325668334961 C115.78589630126953 50.718753814697266 121.91775512695312 50.718753814697266 121.91775512695312 53.31425094604492"></path>
<path fill="none" stroke="black" stroke-width=".3" stroke-opacity="1.0"  filling="0" d="M100.17131042480469 40.75893783569336 C100.17131042480469 42.116363525390625 107.7327651977539 42.116363525390625 107.7327651977539 43.47378158569336"></path>
<path fill="none" stroke="black" stroke-width=".3" stroke-opacity="1.0"  filling="0" d="M92.2654800415039 39.32933807373047 C92.2654800415039 40.04413604736328 100.17131042480469 40.04413604736328 100.17131042480469 40.75893783569336"></path></svg>